<?xml version="1.0" encoding="UTF-8"?>
<svg width="20px" height="10px" viewBox="0 0 20 10" version="1.1" xmlns="http://www.w3.org/2000/svg" xmlns:xlink="http://www.w3.org/1999/xlink">
    <title>F9B4C58A-A1DA-46D8-A674-6A1F13C4C5D3</title>
    <g id="Page-1" stroke="none" stroke-width="1" fill="none" fill-rule="evenodd">
        <g id="Homepage" transform="translate(-248.000000, -3997.000000)" fill="#FFFFFF">
            <g id="Elements-/-Footer" transform="translate(0.000000, 3642.000000)">
                <g id="Social-Media" transform="translate(170.000000, 348.000000)">
                    <g id="⚙️/Link/White" transform="translate(88.000000, 12.000000) rotate(-180.000000) translate(-88.000000, -12.000000) translate(78.000000, 7.000000)">
                        <path d="M15,0.0002 L11,0.0002 L11,1.9002 L15,1.9002 C16.71,1.9002 18.1,3.2902 18.1,5.0002 C18.1,6.7102 16.71,8.0997 15,8.0997 L11,8.0997 L11,10.0002 L15,10.0002 C17.7605,10.0002 20,7.7602 20,5.0002 C20,2.2397 17.7605,0.0002 15,0.0002 L15,0.0002 Z M6,6.0002 L14,6.0002 L14,4.0002 L6,4.0002 L6,6.0002 Z M1.9,5.0002 C1.9,3.2902 3.29,1.9002 5,1.9002 L9,1.9002 L9,0.0002 L5,0.0002 C2.24,0.0002 -5.68434189e-14,2.2397 -5.68434189e-14,5.0002 C-5.68434189e-14,7.7602 2.24,10.0002 5,10.0002 L9,10.0002 L9,8.0997 L5,8.0997 C3.29,8.0997 1.9,6.7102 1.9,5.0002 L1.9,5.0002 Z" id="Link"></path>
                    </g>
                </g>
            </g>
        </g>
    </g>
</svg>