<?xml version="1.0" encoding="UTF-8"?>
<svg width="25px" height="24px" viewBox="0 0 25 24" version="1.1" xmlns="http://www.w3.org/2000/svg" xmlns:xlink="http://www.w3.org/1999/xlink">
    <title>81F3052F-4A1C-43C6-A222-137074307567</title>
    <g id="Page-1" stroke="none" stroke-width="1" fill="none" fill-rule="evenodd">
        <g id="Homepage" transform="translate(-281.000000, -3990.000000)">
            <g id="Elements-/-Footer" transform="translate(0.000000, 3642.000000)">
                <g id="Social-Media" transform="translate(170.000000, 348.000000)">
                    <g id="Icons-/-Mail" transform="translate(111.915379, 0.000000)">
                        <g id="icon_mail" transform="translate(1.500000, 1.500000)">
                            <rect id="Rectangle" x="0" y="0" width="17.2173913" height="17.2173913"></rect>
                            <g id="Group" transform="translate(0.000000, 4.304348)" fill="#FFFFFF" stroke="#DBE6FA">
                                <path d="M16.7173913,5.37860344 L16.7173913,11.8369565 L1.07608696,12.4130435 L0.5,5.37860344 L8.60869565,8.6220817 L16.7173913,5.37860344 Z M16.1413043,0.5 C16.3003864,0.5 16.4444081,0.564480729 16.5486593,0.668731963 C16.6529106,0.772983197 16.7173913,0.917004936 16.7173913,1.07608696 L16.7173913,1.07608696 L16.7173913,2.54432048 L8.60869565,5.78779874 L0.5,2.54432048 L0.5,1.07608696 C0.5,0.917004936 0.564480729,0.772983197 0.668731963,0.668731963 L0.668731963,0.668731963 Z" id="Shape"></path>
                            </g>
                        </g>
                    </g>
                </g>
            </g>
        </g>
    </g>
</svg>