<?xml version="1.0" encoding="UTF-8"?>
<svg width="21px" height="15px" viewBox="0 0 21 15" version="1.1" xmlns="http://www.w3.org/2000/svg" xmlns:xlink="http://www.w3.org/1999/xlink">
    <title>DA0F5D3C-4E9B-48BE-8504-A89AB4BA4BA9</title>
    <defs>
        <path d="M20,1.77519231 C19.264191,2.07692308 18.4739935,2.28057692 17.6431608,2.37115385 C18.4902476,1.90269231 19.1410353,1.16076923 19.447987,0.276923077 C18.6546637,0.710192308 17.7769442,1.02634615 16.8423356,1.19538462 C16.0933983,0.459807692 15.0268817,0 13.8459615,0 C11.5797699,0 9.74368592,1.695 9.74368592,3.78634615 C9.74368592,4.08288462 9.77931983,4.3725 9.84933733,4.64942308 C6.43910978,4.49134615 3.41585396,2.98384615 1.3915979,0.692884615 C1.03900975,1.2525 0.836459115,1.90269231 0.836459115,2.59673077 C0.836459115,3.91096154 1.56101525,5.06942308 2.66129032,5.74903846 C1.98924731,5.72884615 1.35658915,5.55923077 0.803325831,5.27538462 C0.802700675,5.29096154 0.802700675,5.30769231 0.802700675,5.32269231 C0.802700675,7.15788462 2.2168042,8.68846154 4.09414854,9.03634615 C3.75031258,9.12230769 3.38772193,9.16903846 3.01325331,9.16903846 C2.74818705,9.16903846 2.49187297,9.14538462 2.24181045,9.10153846 C2.7631908,10.605 4.2791948,11.7 6.0740185,11.7311538 C4.67054264,12.7465385 2.90135034,13.3528846 0.978994749,13.3528846 C0.647661915,13.3528846 0.320705176,13.335 0,13.2998077 C1.81545386,14.3728846 3.97224306,15 6.28969742,15 C13.8365841,15 17.9644911,9.23019231 17.9644911,4.22596154 C17.9644911,4.06211538 17.9594899,3.89826923 17.951988,3.73557692 C18.7540635,3.20192308 19.4492373,2.53557692 20,1.77519231 Z" id="path-1"></path>
    </defs>
    <g id="Page-1" stroke="none" stroke-width="1" fill="none" fill-rule="evenodd">
        <g id="Homepage" transform="translate(-212.000000, -3995.000000)">
            <g id="Elements-/-Footer" transform="translate(0.000000, 3642.000000)">
                <g id="Social-Media" transform="translate(170.000000, 348.000000)">
                    <g id="⚙️/Twitter/White" transform="translate(42.084621, 5.000000)">
                        <mask id="mask-2" fill="white">
                            <use xlink:href="#path-1"></use>
                        </mask>
                        <use id="Twitter" fill="#FFFFFF" xlink:href="#path-1"></use>
                    </g>
                </g>
            </g>
        </g>
    </g>
</svg>