<?xml version="1.0" encoding="UTF-8"?>
<svg width="18px" height="19px" viewBox="0 0 18 19" version="1.1" xmlns="http://www.w3.org/2000/svg" xmlns:xlink="http://www.w3.org/1999/xlink">
    <title>A1337999-7B96-462B-AC41-963F39498A3C</title>
    <g id="Page-1" stroke="none" stroke-width="1" fill="none" fill-rule="evenodd">
        <g id="Homepage" transform="translate(-246.000000, -3682.000000)" fill="#FFFFFF" fill-rule="nonzero">
            <g id="Elements-/-Footer" transform="translate(0.000000, 3331.000000)">
                <g id="Social-Media" transform="translate(170.000000, 348.000000)">
                    <g id="instagram" transform="translate(76.030757, 3.300000)">
                        <g id="Group" transform="translate(0.000000, 0.362500)">
                            <path d="M8.44125,4.125 C6.05625,4.125 4.1325,6.04875 4.1325,8.43375 C4.1325,10.81875 6.05625,12.7425 8.44125,12.7425 C10.82625,12.7425 12.75,10.81875 12.75,8.43375 C12.75,6.04875 10.82625,4.125 8.44125,4.125 Z M8.44125,11.235 C6.9,11.235 5.64,9.97875 5.64,8.43375 C5.64,6.88875 6.89625,5.6325 8.44125,5.6325 C9.98625,5.6325 11.2425,6.88875 11.2425,8.43375 C11.2425,9.97875 9.9825,11.235 8.44125,11.235 L8.44125,11.235 Z M13.93125,3.94875 C13.93125,4.5075 13.48125,4.95375 12.92625,4.95375 C12.3675,4.95375 11.92125,4.50375 11.92125,3.94875 C11.92125,3.39375 12.37125,2.94375 12.92625,2.94375 C13.48125,2.94375 13.93125,3.39375 13.93125,3.94875 Z M16.785,4.96875 C16.72125,3.6225 16.41375,2.43 15.4275,1.4475 C14.445,0.465 13.2525,0.1575 11.90625,0.09 C10.51875,0.01125 6.36,0.01125 4.9725,0.09 C3.63,0.15375 2.4375,0.46125 1.45125,1.44375 C0.465,2.42625 0.16125,3.61875 0.09375,4.965 C0.015,6.3525 0.015,10.51125 0.09375,11.89875 C0.1575,13.245 0.465,14.4375 1.45125,15.42 C2.4375,16.4025 3.62625,16.71 4.9725,16.7775 C6.36,16.85625 10.51875,16.85625 11.90625,16.7775 C13.2525,16.71375 14.445,16.40625 15.4275,15.42 C16.41,14.4375 16.7175,13.245 16.785,11.89875 C16.86375,10.51125 16.86375,6.35625 16.785,4.96875 Z M14.9925,13.3875 C14.7,14.1225 14.13375,14.68875 13.395,14.985 C12.28875,15.42375 9.66375,15.3225 8.44125,15.3225 C7.21875,15.3225 4.59,15.42 3.4875,14.985 C2.7525,14.6925 2.18625,14.12625 1.89,13.3875 C1.45125,12.28125 1.5525,9.65625 1.5525,8.43375 C1.5525,7.21125 1.455,4.5825 1.89,3.48 C2.1825,2.745 2.74875,2.17875 3.4875,1.8825 C4.59375,1.44375 7.21875,1.545 8.44125,1.545 C9.66375,1.545 12.2925,1.4475 13.395,1.8825 C14.13,2.175 14.69625,2.74125 14.9925,3.48 C15.43125,4.58625 15.33,7.21125 15.33,8.43375 C15.33,9.65625 15.43125,12.285 14.9925,13.3875 Z" id="Shape"></path>
                        </g>
                    </g>
                </g>
            </g>
        </g>
    </g>
</svg>