<?xml version="1.0" encoding="UTF-8"?>
<svg width="174px" height="19px" viewBox="0 0 174 19" version="1.1" xmlns="http://www.w3.org/2000/svg" xmlns:xlink="http://www.w3.org/1999/xlink">
    <!-- Generator: sketchtool 62 (101010) - https://sketch.com -->
    <title>03639ECD-A73D-43B0-8571-623C43636C4F</title>
    <desc>Created with sketchtool.</desc>
    <defs>
        <polygon id="path-1" points="0 18.5566853 173.262118 18.5566853 173.262118 -0.000167647059 0 -0.000167647059"></polygon>
    </defs>
    <g id="Desktop" stroke="none" stroke-width="1" fill="none" fill-rule="evenodd">
        <g id="Campaign" transform="translate(-154.000000, -26.000000)">
            <g id="Nav">
                <g id="Logo---color" transform="translate(154.000000, 26.000000)">
                    <g id="Group-20">
                        <path d="M89.3998618,14.2975 C89.5401265,14.1421471 89.6815088,13.9907059 89.8228912,13.8437353 C89.6815088,13.9907059 89.5401265,14.1421471 89.3998618,14.2975" id="Fill-1" fill="#24205E"></path>
                        <path d="M88.5894559,15.2547088 C88.5726912,15.2809735 88.5386029,15.3329441 88.4922206,15.4050324 C88.5386029,15.3329441 88.5726912,15.2809735 88.5894559,15.2547088" id="Fill-3" fill="#24205E"></path>
                        <path d="M100.232488,9.96415882 L100.171018,9.96751176 L100.1509,9.96918824 L100.130782,9.97030588 C100.117929,9.97086471 100.099488,9.97198235 100.083282,9.97254118 C99.8027529,13.2958647 97.5434294,15.7373647 94.1798706,15.7373647 C92.6324882,15.7373647 91.3304294,15.2232471 90.3407529,14.3542765 C90.0507235,14.6560412 89.7891941,14.9477471 89.5405176,15.2450412 C89.5002824,15.2936588 89.4600471,15.3411588 89.4192529,15.3886588 C89.3443706,15.4775118 89.2683706,15.5658059 89.1940471,15.6596882 C89.1286647,15.7602765 88.8744,16.1514529 88.5771059,16.6353941 C88.5597824,16.6627765 88.5419,16.6935118 88.5251353,16.7214529 C90.0429,17.8687176 91.9769882,18.5298059 94.1798706,18.5298059 C99.5227824,18.5298059 103.336194,14.6096588 103.336753,9.26562941 C102.939988,9.44333529 102.318576,9.66854118 101.471959,9.81942353 C101.032165,9.8971 100.635959,9.94348235 100.232488,9.96415882" id="Fill-5" fill="#24205E"></path>
                        <path d="M86.8889559,14.6426853 L86.9057206,14.5840088 L86.9124265,14.5599794 C86.9241618,14.5180676 86.9358971,14.4778324 86.9504265,14.4264206 L86.9755735,14.3442735 L86.9906618,14.2950971 C87.0051912,14.2464794 87.0197206,14.1978618 87.0376029,14.1419794 C87.0504559,14.1017441 87.0649853,14.0564794 87.0800735,14.0112147 L87.0929265,13.9715382 C87.1119265,13.9128618 87.1314853,13.8547441 87.1532794,13.7904794 C87.1700441,13.7396265 87.1890441,13.6854206 87.2086029,13.6306559 L87.2270441,13.5770088 C87.2505147,13.5116265 87.2734265,13.4456853 87.2991324,13.3758324 C87.3198088,13.3182735 87.3427206,13.2579206 87.3661912,13.1970088 L87.3851912,13.1467147 C87.4148088,13.0673618 87.4455441,12.9880088 87.4790735,12.9036265 C87.4958382,12.8600382 87.5142794,12.8147735 87.5327206,12.7683912 L87.5545147,12.7158618 L87.5612206,12.6985382 L87.5791029,12.6538324 C87.6154265,12.5660971 87.65175,12.4772441 87.6908676,12.3855971 C87.7294265,12.2945088 87.7702206,12.2000676 87.8121324,12.1050676 C87.8523676,12.0139794 87.8937206,11.9212147 87.93675,11.8267735 C87.9658088,11.7641853 87.9954265,11.6993618 88.0261618,11.6350971 L88.0401324,11.6060382 L88.0557794,11.5713912 L88.07925,11.5222147 C88.1256324,11.4238618 88.17425,11.3243912 88.2239853,11.2226853 C88.2748382,11.1181853 88.3284853,11.0125676 88.3838088,10.9058324 C88.3910735,10.8907441 88.3994559,10.8750971 88.4072794,10.8600088 C88.3044559,10.3520382 88.2452206,9.82059706 88.2452206,9.26512647 C88.2452206,5.55956765 90.5542794,2.79339118 94.1799265,2.79339118 C94.6554853,2.79339118 95.1058971,2.84871471 95.5339559,2.94203824 C95.6066029,2.89565588 95.6770147,2.84871471 95.7507794,2.80345 C95.8357206,2.75203824 95.9234559,2.70286176 96.0111912,2.65312647 L96.1151324,2.59500882 L96.1358088,2.58271471 L96.1849853,2.55477353 L96.2704853,2.50615588 C96.4230441,2.41897941 96.5750441,2.33180294 96.7326324,2.24909706 C96.8443971,2.19042059 96.9595147,2.13397941 97.07575,2.07809706 L97.2020441,2.01662647 L97.2590441,1.98868529 C97.4255735,1.90653824 97.5988088,1.82215588 97.7804265,1.74056765 C97.9072794,1.68356765 98.0380441,1.62992059 98.1693676,1.57627353 L98.2833676,1.52933235 C98.46275,1.45500882 98.6421324,1.38124412 98.8360441,1.30803824 C98.8550441,1.30021471 98.8740441,1.29239118 98.8924853,1.28568529 C98.9221029,1.27450882 98.9528382,1.26500882 98.9824559,1.25383235 C97.6133382,0.454155882 95.9860441,0.000391176471 94.1799265,0.000391176471 C88.8090735,0.000391176471 85.0213676,3.92109706 85.0213676,9.26512647 C85.0213676,11.41995 85.6394265,13.3423029 86.7268971,14.8701265 C86.7783088,14.7963618 86.8308382,14.72595 86.8850441,14.6583324 L86.8889559,14.6426853 Z" id="Fill-7" fill="#24205E"></path>
                        <path d="M99.1623412,2.00802059 C97.6641353,2.57075588 96.2301941,3.32684412 94.8901353,4.29249118 C93.1667235,5.53531471 91.6612529,7.07655 90.4430176,8.81728529 C89.1538118,10.6602853 88.4854588,12.8106382 87.5650765,14.8402853 C87.2756059,15.4795794 86.8240765,16.1132853 86.6966647,16.8101382 C86.6044588,17.3119618 86.5284588,18.0211088 86.7346647,18.4994618 C87.1705471,17.85905 87.4276059,17.06105 87.8461647,16.3949324 C88.2842824,15.6980794 88.7760471,15.0358735 89.3125176,14.4116676 C90.3703706,13.1822559 91.6009,12.1009324 92.9510176,11.2023441 C93.9116353,10.5636088 94.9404294,10.0154029 96.0429882,9.67507941 C96.9382235,9.39902059 97.8776059,9.32525588 98.8086059,9.27831471 C99.7356941,9.23193235 100.670606,9.21405 101.586518,9.04305 C101.912312,8.98213824 102.234194,8.89999118 102.548253,8.79213824 C102.706959,8.73793235 102.863429,8.67702059 103.017106,8.60940294 C103.050635,8.59431471 103.407724,8.40878529 103.411635,8.41325588 C103.360782,8.38755 103.307694,8.30652059 103.268018,8.26516765 C103.214371,8.21040294 103.160724,8.15507941 103.107635,8.09975588 C103.000341,7.99022647 102.893606,7.87957941 102.786312,7.77005 C102.565018,7.54149118 102.343165,7.31405 102.121871,7.08549118 L103.057341,6.84016765 L103.193135,6.80496176 L105.278106,6.25787353 L109.066929,0.826667647 C108.560076,0.779726471 108.068312,0.750667647 107.583253,0.731667647 C104.684076,0.615432353 101.821782,1.00828529 99.1623412,2.00802059" id="Fill-9" fill="#E41F32"></path>
                        <polygon id="Fill-11" fill="#24205E" points="12.4546676 18.1980882 12.4546676 10.3605882 3.14131471 10.3605882 3.14131471 18.1980882 0.000167647059 18.1980882 0.000167647059 0.295058824 3.14131471 0.295058824 3.14131471 7.59552941 12.4546676 7.59552941 12.4546676 0.295058824 15.5946971 0.295058824 15.5946971 18.1980882"></polygon>
                        <mask id="mask-2" fill="white">
                            <use xlink:href="#path-1"></use>
                        </mask>
                        <g id="Clip-14"></g>
                        <polygon id="Fill-13" fill="#24205E" mask="url(#mask-2)" points="25.5846176 18.1979206 28.7252059 18.1979206 28.7252059 0.294891176 25.5846176 0.294891176"></polygon>
                        <path d="M37.9329971,9.25987353 C37.9329971,3.62357941 42.1208206,0.000167647059 47.3279382,0.000167647059 C50.8172324,0.000167647059 53.0994676,1.66378529 54.5216735,3.70405 L51.9712029,5.18046176 C51.0055559,3.83816765 49.3139971,2.79093235 47.3279382,2.79093235 C43.7849971,2.79093235 41.1551735,5.47552059 41.1551735,9.25987353 C41.1551735,12.9911382 43.7849971,15.7288147 47.3279382,15.7288147 C49.1530559,15.7288147 50.7635853,14.8961676 51.5682912,14.1182853 L51.5682912,11.3537853 L46.2002324,11.3537853 L46.2002324,8.58928529 L54.6826147,8.58928529 L54.6826147,15.2722559 C52.9385265,17.2314912 50.4143206,18.5469618 47.3279382,18.5469618 C42.1208206,18.5469618 37.9329971,14.8699029 37.9329971,9.25987353" id="Fill-15" fill="#24205E" mask="url(#mask-2)"></path>
                        <polygon id="Fill-16" fill="#24205E" mask="url(#mask-2)" points="64.1348912 18.1980882 64.1348912 0.295058824 76.4010676 0.295058824 76.4010676 3.05955882 67.2760382 3.05955882 67.2760382 7.676 76.2138618 7.676 76.2138618 10.4410588 67.2760382 10.4410588 67.2760382 15.4335882 76.4010676 15.4335882 76.4010676 18.1980882"></polygon>
                        <path d="M123.033494,5.87776176 C123.033494,4.15993824 121.745406,3.05961471 119.973376,3.05961471 L115.652553,3.05961471 L115.652553,8.75011471 L119.973376,8.75011471 C121.745406,8.75011471 123.033494,7.62296765 123.033494,5.87776176 L123.033494,5.87776176 Z M122.738435,18.1981441 L118.793141,11.5146147 L115.652553,11.5146147 L115.652553,18.1981441 L112.511965,18.1981441 L112.511965,0.295114706 L120.376288,0.295114706 C123.919229,0.295114706 126.254553,2.57679118 126.254553,5.90458529 C126.254553,9.07199706 124.161759,10.8166441 121.987376,11.1659088 L126.388671,18.1981441 L122.738435,18.1981441 Z" id="Fill-17" fill="#24205E" mask="url(#mask-2)"></path>
                        <path d="M134.793879,9.25987353 C134.793879,3.62357941 138.981703,0.000167647059 144.188821,0.000167647059 C147.678115,0.000167647059 149.96035,1.66378529 151.382556,3.70405 L148.832085,5.18046176 C147.866438,3.83816765 146.174879,2.79093235 144.188821,2.79093235 C140.645879,2.79093235 138.016056,5.47552059 138.016056,9.25987353 C138.016056,12.9911382 140.645879,15.7288147 144.188821,15.7288147 C146.013938,15.7288147 147.624468,14.8961676 148.429174,14.1182853 L148.429174,11.3537853 L143.061115,11.3537853 L143.061115,8.58928529 L151.543497,8.58928529 L151.543497,15.2722559 C149.799409,17.2314912 147.275203,18.5469618 144.188821,18.5469618 C138.981703,18.5469618 134.793879,14.8699029 134.793879,9.25987353" id="Fill-18" fill="#24205E" mask="url(#mask-2)"></path>
                        <polygon id="Fill-19" fill="#24205E" mask="url(#mask-2)" points="160.995829 18.1980882 160.995829 0.295058824 173.262006 0.295058824 173.262006 3.05955882 164.136976 3.05955882 164.136976 7.676 173.0748 7.676 173.0748 10.4410588 164.136976 10.4410588 164.136976 15.4335882 173.262006 15.4335882 173.262006 18.1980882"></polygon>
                    </g>
                </g>
            </g>
        </g>
    </g>
</svg>