<?xml version="1.0" encoding="UTF-8"?>
<svg width="42px" height="42px" viewBox="0 0 42 42" version="1.1" xmlns="http://www.w3.org/2000/svg" xmlns:xlink="http://www.w3.org/1999/xlink">
    <title>FDF3C9D3-F9B8-49D8-9515-85CDAC87E383</title>
    <g id="Page-1" stroke="none" stroke-width="1" fill="none" fill-rule="evenodd">
        <g id="Homepage" transform="translate(-1016.000000, -2951.000000)" fill="#E41F32" fill-rule="nonzero">
            <g id="ai-powered" transform="translate(1016.000000, 2951.000000)">
                <path d="M20.9987695,5.93303184e-13 C22.5358711,5.93303184e-13 23.7863555,1.24933594 23.7863555,2.785125 C23.7863555,4.03675781 22.9571016,5.09816016 21.8191641,5.44925391 L21.8191641,5.44925391 L21.8191641,8.675625 C24.4887891,8.85158203 27.066457,9.89460938 29.1320039,11.7055313 L29.1320039,11.7055313 L31.4142773,9.42325781 C31.2038672,9.02663672 31.0920586,8.58210938 31.0920586,8.1204375 C31.0920586,7.37641406 31.3817109,6.67701563 31.9078594,6.15103125 C32.4338437,5.62496484 33.1336523,5.3353125 33.878332,5.3353125 C34.6230117,5.3353125 35.3228203,5.62496484 35.8488047,6.15103125 C36.3749531,6.67701563 36.6646055,7.37649609 36.6646055,8.1204375 C36.6646055,8.86437891 36.3749531,9.56377734 35.8488867,10.0898438 C35.3229023,10.6159102 34.6230937,10.9055625 33.8784141,10.9055625 C33.416168,10.9055625 32.9713125,10.7937539 32.5744453,10.5832617 L32.5744453,10.5832617 L30.2911875,12.8664375 L30.2911875,12.8664375 L30.3611602,12.9460898 C30.6566367,13.2895547 30.617918,13.807418 30.2745352,14.1029766 C29.9312344,14.3985352 29.413207,14.3597344 29.1176484,14.0163516 C26.0939766,10.5031172 21.1848164,9.33491016 16.9017187,11.1092461 C11.4484453,13.369125 8.84985937,19.6434492 11.1092461,25.0957383 C13.369043,30.5490938 19.6434492,33.1475977 25.0957383,30.888293 C29.3792461,29.1148594 32.0238516,24.8186367 31.6768594,20.1975703 C31.6428984,19.7457422 31.9816875,19.3519922 32.4334336,19.3181133 C32.8855078,19.2845625 33.2790117,19.6228594 33.3128906,20.0746875 C33.3154336,20.1093047 33.3173203,20.1438398 33.3196172,20.178457 L33.3196172,20.178457 L36.5508281,20.178457 C36.9018398,19.041832 37.9622578,18.2136445 39.2125781,18.2136445 C40.7495977,18.2136445 41.9998359,19.4630625 41.9998359,20.9987695 C41.9998359,22.5357891 40.7494336,23.7862734 39.2124141,23.7862734 C37.9618477,23.7862734 36.9012656,22.9570195 36.5505,21.819082 L36.5505,21.819082 L33.3213398,21.819082 C33.1421836,24.5605664 32.0570742,27.1211719 30.2933203,29.1333164 L30.2933203,29.1333164 L32.5743633,31.4143594 C32.9712305,31.2038672 33.4160859,31.0920586 33.878332,31.0920586 C34.6230117,31.0920586 35.3228203,31.3817109 35.8488047,31.9078594 C36.3748711,32.4338438 36.6645234,33.1336523 36.6645234,33.878332 C36.6645234,34.6230117 36.3748711,35.3228203 35.8488047,35.8488047 L35.8488047,35.8488047 L35.7010392,35.9864579 C35.1950482,36.4252234 34.555157,36.6646055 33.87825,36.6646055 C33.1335703,36.6646055 32.4337617,36.3749531 31.9076953,35.8488867 C31.3816289,35.3229023 31.0919766,34.6230938 31.0919766,33.8784141 C31.0919766,33.416168 31.2037852,32.9713125 31.4142773,32.5744453 L31.4142773,32.5744453 L29.1320039,30.2921719 C28.1383594,31.1596523 26.9936133,31.8782461 25.7235234,32.4040664 C24.4458047,32.9335781 23.1284648,33.2309414 21.819,33.3171563 L21.819,33.3171563 L21.819,36.550582 C22.9568555,36.9013477 23.7861914,37.9619297 23.7861914,39.2124961 C23.7861914,40.7495156 22.535707,41.999918 20.9986875,41.999918 C19.4628984,41.999918 18.2135625,40.7495156 18.2135625,39.2124961 C18.2135625,37.9620938 19.04175,36.9017578 20.178375,36.5507461 L20.178375,36.5507461 L20.178375,33.3146953 C17.4829102,33.1309453 14.9067187,32.0633086 12.8705391,30.2870859 L12.8705391,30.2870859 L10.5832617,32.5744453 C10.7937539,32.9713125 10.9055625,33.416168 10.9055625,33.8784141 C10.9055625,34.6230938 10.6159102,35.3229023 10.0897617,35.8488867 C9.56377734,36.3749531 8.86429687,36.6646055 8.1204375,36.6646055 C7.37641406,36.6646055 6.67701562,36.3749531 6.15103125,35.8488047 C5.62496484,35.3227383 5.3353125,34.6229297 5.3353125,33.878332 C5.3353125,33.1336523 5.62496484,32.4338438 6.15103125,31.9077773 C6.67701562,31.3817109 7.37649609,31.0920586 8.1204375,31.0920586 C8.58219141,31.0920586 9.02663672,31.2038672 9.42325781,31.4142773 L9.42325781,31.4142773 L11.7094687,29.1279844 C10.8448594,28.1415586 10.1230664,27.0013242 9.59363672,25.7238516 C9.06396094,24.4458047 8.76585937,23.1286289 8.67972656,21.819082 L8.67972656,21.819082 L5.44925391,21.819082 C5.09816016,22.9569375 4.03675781,23.7862734 2.785125,23.7862734 C1.24933594,23.7862734 -1.52766688e-13,22.5357891 -1.52766688e-13,20.9987695 C-1.52766688e-13,19.4630625 1.24933594,18.2136445 2.785125,18.2135625 C4.03659375,18.2135625 5.09783203,19.04175 5.44908984,20.178375 L5.44908984,20.178375 L8.68276172,20.178375 C8.86675781,17.4829922 9.93406641,14.9064727 11.710207,12.870293 L11.710207,12.870293 L9.42317578,10.5833438 C9.02655469,10.7937539 8.58202734,10.9055625 8.12035547,10.9055625 C7.37633203,10.9055625 6.67693359,10.6159102 6.15094922,10.0897617 C5.62488281,9.56377734 5.33523047,8.86437891 5.33523047,8.1204375 C5.33523047,7.37649609 5.62488281,6.67709766 6.15094922,6.15111328 C6.15103125,6.15103125 6.15103125,6.15103125 6.15103125,6.15103125 L6.29868423,6.0134601 C6.8045471,5.5746946 7.4440451,5.3353125 8.12035547,5.3353125 C8.86429687,5.3353125 9.56369531,5.62496484 10.0897617,6.15103125 C10.6158281,6.67701563 10.9054805,7.37649609 10.9054805,8.1204375 C10.9054805,8.58219141 10.7936719,9.02663672 10.5832617,9.42325781 L10.5832617,9.42325781 L12.8681602,11.7081563 C13.854668,10.8434648 14.9962969,10.1230664 16.2737695,9.59371875 C17.5440234,9.06748828 18.8620195,8.76626953 20.178457,8.67718359 L20.178457,8.67718359 L20.178457,5.44908984 C19.041832,5.09775 18.2136445,4.03651172 18.2136445,2.785125 C18.2136445,1.24933594 19.4629805,5.93303184e-13 20.9987695,5.93303184e-13 Z M20.9988516,38.0680781 C20.3677852,38.0680781 19.8543516,38.5815117 19.8543516,39.2125781 C19.8543516,39.844957 20.3677852,40.359375 20.9988516,40.359375 C21.6312305,40.359375 22.1457305,39.844957 22.1457305,39.2125781 C22.1457305,38.5814297 21.6311484,38.0679961 20.9988516,38.0680781 Z M8.1204375,32.7326836 C7.81478906,32.7326836 7.52735156,32.8517109 7.31119922,33.0678633 C7.09496484,33.2841797 6.9759375,33.5720273 6.9759375,33.8784141 C6.9759375,34.1848008 7.09496484,34.4726484 7.31111719,34.6888008 L7.31111719,34.6888008 L7.4080456,34.7755092 C7.60984821,34.9366138 7.85845312,35.0240625 8.1204375,35.0240625 C8.42608594,35.0240625 8.71344141,34.9050352 8.92967578,34.6888008 C9.14591016,34.4726484 9.2649375,34.1848008 9.2649375,33.8784141 C9.2649375,33.5720273 9.14591016,33.2841797 8.92967578,33.0679453 C8.71344141,32.8517109 8.42608594,32.7326836 8.1204375,32.7326836 Z M33.8784141,32.7326836 C33.5720273,32.7326836 33.2841797,32.8517109 33.0679453,33.0679453 C32.851793,33.2841797 32.7326836,33.5720273 32.7326836,33.8784141 C32.7326836,34.1848008 32.8517109,34.4726484 33.0678633,34.6888008 C33.2841797,34.9050352 33.5720273,35.0240625 33.8784141,35.0240625 C34.1848008,35.0240625 34.4726484,34.9050352 34.6888008,34.6888008 L34.6888008,34.6888008 L34.7755092,34.5919295 C34.9366138,34.3900279 35.0240625,34.1410313 35.0240625,33.8784141 C35.0240625,33.5720273 34.9050352,33.2841797 34.6888008,33.0679453 C34.4726484,32.8517109 34.1848008,32.7326836 33.8784141,32.7326836 Z M20.9987695,11.9587617 C21.4517461,11.9587617 21.819082,12.3260977 21.819082,12.7790742 L21.819082,12.7790742 L21.819082,15.6698555 L23.3617617,15.6698555 L23.3617617,14.0068359 C23.3617617,13.5538594 23.7290977,13.1865234 24.1820742,13.1865234 C24.6350508,13.1865234 25.0023867,13.5538594 25.0023867,14.0068359 L25.0023867,14.0068359 L25.0023867,15.6698555 L25.5074531,15.6698555 C25.9604297,15.6698555 26.3277656,16.0371914 26.3277656,16.490168 L26.3277656,16.490168 L26.3277656,16.9976133 L27.9931641,16.9976133 C28.4461406,16.9976133 28.8134766,17.3649492 28.8134766,17.8179258 C28.8134766,18.2709023 28.4461406,18.6382383 27.9931641,18.6382383 L27.9931641,18.6382383 L26.3277656,18.6382383 L26.3277656,20.178457 L29.2209258,20.178457 C29.6739023,20.178457 30.0412383,20.545793 30.0412383,20.9987695 C30.0412383,21.4517461 29.6739023,21.819082 29.2209258,21.819082 L29.2209258,21.819082 L26.3277656,21.819082 L26.3277656,23.3617617 L27.9931641,23.3617617 C28.4461406,23.3617617 28.8134766,23.7290977 28.8134766,24.1820742 C28.8134766,24.6350508 28.4461406,25.0023867 27.9931641,25.0023867 L27.9931641,25.0023867 L26.3277656,25.0023867 L26.3277656,25.5074531 C26.3277656,25.9604297 25.9604297,26.3277656 25.5074531,26.3277656 L25.5074531,26.3277656 L25.0023867,26.3277656 L25.0023867,27.9931641 C25.0023867,28.4461406 24.6350508,28.8134766 24.1820742,28.8134766 C23.7290977,28.8134766 23.3617617,28.4461406 23.3617617,27.9931641 L23.3617617,27.9931641 L23.3617617,26.3277656 L21.819082,26.3277656 L21.819082,29.2209258 C21.819082,29.6739023 21.4517461,30.0412383 20.9987695,30.0412383 C20.545793,30.0412383 20.178457,29.6739023 20.178457,29.2209258 L20.178457,29.2209258 L20.178457,26.3277656 L18.6382383,26.3277656 L18.6382383,27.9931641 C18.6382383,28.4461406 18.2709023,28.8134766 17.8179258,28.8134766 C17.3649492,28.8134766 16.9976133,28.4461406 16.9976133,27.9931641 L16.9976133,27.9931641 L16.9976133,26.3277656 L16.490168,26.3277656 C16.0371914,26.3277656 15.6698555,25.9604297 15.6698555,25.5074531 L15.6698555,25.5074531 L15.6698555,25.0023867 L14.0068359,25.0023867 C13.5538594,25.0023867 13.1865234,24.6350508 13.1865234,24.1820742 C13.1865234,23.7290977 13.5538594,23.3617617 14.0068359,23.3617617 L14.0068359,23.3617617 L15.6698555,23.3617617 L15.6698555,21.819082 L12.7790742,21.819082 C12.3260977,21.819082 11.9587617,21.4517461 11.9587617,20.9987695 C11.9587617,20.545793 12.3260977,20.178457 12.7790742,20.178457 L12.7790742,20.178457 L15.6698555,20.178457 L15.6698555,18.6382383 L14.0068359,18.6382383 C13.5538594,18.6382383 13.1865234,18.2709023 13.1865234,17.8179258 C13.1865234,17.3649492 13.5538594,16.9976133 14.0068359,16.9976133 L14.0068359,16.9976133 L15.6698555,16.9976133 L15.6698555,16.490168 C15.6698555,16.0371914 16.0371914,15.6698555 16.490168,15.6698555 L16.490168,15.6698555 L16.9976133,15.6698555 L16.9976133,14.0068359 C16.9976133,13.5538594 17.3649492,13.1865234 17.8179258,13.1865234 C18.2709023,13.1865234 18.6382383,13.5538594 18.6382383,14.0068359 L18.6382383,14.0068359 L18.6382383,15.6698555 L20.178457,15.6698555 L20.178457,12.7790742 C20.178457,12.3260977 20.545793,11.9587617 20.9987695,11.9587617 Z M24.6871406,17.3104805 L17.3104805,17.3104805 L17.3104805,24.6871406 L24.6871406,24.6871406 L24.6871406,17.3104805 Z M2.785125,19.8543516 C2.15405859,19.8543516 1.640625,20.3677852 1.640625,20.9988516 C1.640625,21.6312305 2.15405859,22.1457305 2.785125,22.1457305 C3.41750391,22.1457305 3.93200391,21.6311484 3.93192187,20.9988516 C3.93192187,20.3677852 3.41750391,19.8543516 2.785125,19.8543516 Z M39.2125781,19.8543516 C38.5815117,19.8543516 38.0680781,20.3677852 38.0680781,20.9988516 C38.0680781,21.6312305 38.5815117,22.1457305 39.2125781,22.1457305 C39.844957,22.1457305 40.359375,21.6311484 40.359375,20.9988516 C40.359375,20.3677852 39.844957,19.8543516 39.2125781,19.8543516 Z M31.279418,15.8541797 C31.6841602,15.6513984 32.17725,15.8157891 32.3798672,16.2211875 C32.5824844,16.6263398 32.4193242,17.1213984 32.0141719,17.3240156 C31.8958828,17.3831602 31.7701289,17.4112148 31.6463437,17.4112148 C31.3464375,17.4112148 31.0582617,17.246332 30.9147891,16.9593867 L30.9147891,16.9593867 C30.709957,16.5495586 30.8741836,16.0567969 31.279418,15.8541797 Z M33.8784141,6.9759375 C33.5720273,6.9759375 33.2841797,7.09496484 33.0679453,7.31119922 C32.851793,7.52735156 32.7326836,7.81478906 32.7326836,8.1204375 C32.7326836,8.42608594 32.8517109,8.71344141 33.0679453,8.92967578 C33.2841797,9.14591016 33.5720273,9.2649375 33.8784141,9.2649375 C34.1848008,9.2649375 34.4726484,9.14591016 34.6888008,8.92975781 C34.9050352,8.71344141 35.0240625,8.42608594 35.0240625,8.1204375 C35.0240625,7.81478906 34.9050352,7.52735156 34.6888828,7.31119922 L34.6888828,7.31119922 L34.5919295,7.22449075 C34.3900279,7.06338616 34.1410312,6.9759375 33.8784141,6.9759375 Z M8.1204375,6.9759375 C7.81478906,6.9759375 7.52735156,7.09496484 7.31119922,7.31119922 L7.31119922,7.31119922 L7.22449075,7.4080456 C7.06338616,7.60984821 6.9759375,7.85845313 6.9759375,8.1204375 C6.9759375,8.42608594 7.09496484,8.71344141 7.31119922,8.92967578 C7.52735156,9.14591016 7.81478906,9.2649375 8.1204375,9.2649375 C8.42608594,9.2649375 8.71344141,9.14591016 8.92967578,8.92967578 C9.14591016,8.71352344 9.2649375,8.42608594 9.2649375,8.1204375 C9.2649375,7.81478906 9.14591016,7.52735156 8.92975781,7.31119922 C8.71344141,7.09496484 8.42608594,6.9759375 8.1204375,6.9759375 Z M20.9987695,1.640625 C20.3677031,1.640625 19.8542695,2.15405859 19.8542695,2.785125 C19.8542695,3.41750391 20.3677031,3.93200391 20.9987695,3.93192188 C21.6311484,3.93192188 22.1456484,3.41750391 22.1456484,2.785125 C22.1456484,2.15405859 21.6311484,1.640625 20.9987695,1.640625 Z" id="Combined-Shape"></path>
            </g>
        </g>
    </g>
</svg>