<?xml version="1.0" encoding="UTF-8"?>
<svg width="41px" height="38px" viewBox="0 0 41 38" version="1.1" xmlns="http://www.w3.org/2000/svg" xmlns:xlink="http://www.w3.org/1999/xlink">
    <title>A0864010-FB62-40F5-A70B-A0DAE007D3BC</title>
    <g id="Page-1" stroke="none" stroke-width="1" fill="none" fill-rule="evenodd">
        <g id="Homepage" transform="translate(-1014.000000, -3055.000000)">
            <g id="Group-15" transform="translate(268.000000, 3004.000000)">
                <g id="Group-12" transform="translate(439.000000, 51.500000)">
                    <g id="Group-16" transform="translate(1.074297, 0.000000)">
                        <g id="Outlined-/-Device-/-graphic_eq" transform="translate(306.711847, 0.045120)">
                            <polygon id="Path" points="0 0 38.6746988 0 38.6746988 36 0 36"></polygon>
                            <path d="M11.2801205,27 L14.503012,27 L14.503012,9 L11.2801205,9 L11.2801205,27 Z M17.7259036,33 L20.9487952,33 L20.9487952,3 L17.7259036,3 L17.7259036,33 Z M4.83433735,21 L8.05722892,21 L8.05722892,15 L4.83433735,15 L4.83433735,21 Z M24.1716867,27 L27.3945783,27 L27.3945783,9 L24.1716867,9 L24.1716867,27 Z M30.6174699,15 L30.6174699,21 L33.8403614,21 L33.8403614,15 L30.6174699,15 Z" id="🔹-Icon-Color" fill="#E41F32"></path>
                        </g>
                    </g>
                </g>
            </g>
        </g>
    </g>
</svg>