<?xml version="1.0" encoding="UTF-8"?>
<svg width="42px" height="42px" viewBox="0 0 42 42" version="1.1" xmlns="http://www.w3.org/2000/svg" xmlns:xlink="http://www.w3.org/1999/xlink">
    <title>0342729D-FF34-4CAA-B56C-507A6AE8803D</title>
    <g id="Page-1" stroke="none" stroke-width="1" fill="none" fill-rule="evenodd">
        <g id="Homepage" transform="translate(-1012.000000, -2692.000000)" fill="#E41F32" fill-rule="nonzero">
            <g id="hero" transform="translate(1012.000000, 2692.000000)">
                <path d="M39.4444277,0.168504875 C39.722168,-0.0694737302 40.1362851,-0.05357735 40.3949647,0.204992375 L40.3949647,0.204992375 L41.7949647,1.60499237 C42.0309127,1.84094611 42.0675171,2.21063875 41.8824219,2.48828125 L41.8824219,2.48828125 L37.6824219,8.78828125 C37.614864,8.88965009 37.5220085,8.9716221 37.4130435,9.02608612 L37.4130435,9.02608612 L33.4723812,10.9964601 L30.8178859,18.9599427 L34.2916262,41.1919069 C34.3231993,41.3939859 34.2648158,41.5997657 34.1318227,41.7551543 C33.9988296,41.9105428 33.8045306,42 33.6,42 L33.6,42 L31.4999996,42 C31.1918955,42 30.9200134,41.7985598 30.8303371,41.5037945 L30.8303371,41.5037945 L26.5172871,27.332382 L20.9518496,41.5550625 C20.8468789,41.8234226 20.5881596,42 20.3,42 L20.3,42 L18.2,42 C17.9858291,42 17.7834405,41.9019664 17.6506846,41.7339037 C17.5179287,41.5658411 17.4694159,41.3462518 17.5190129,41.1379027 L17.5190129,41.1379027 L20.9999996,26.5178016 L20.9999996,26.189975 L16.5949647,30.5950076 C16.4124123,30.777529 16.1442237,30.8447694 15.8971539,30.7699632 C15.650084,30.695157 15.4642352,30.490446 15.4135861,30.2373172 L15.4135861,30.2373172 L15.1624935,28.9818112 C14.553772,25.9725011 11.9119812,23.8067405 8.84172975,23.8 C7.64287424,23.7999838 6.50174013,23.2851874 5.7083276,22.3864377 C4.91491507,21.4876879 4.54561592,20.2915188 4.69428137,19.1019167 C4.80347596,18.2504527 4.51053474,17.3966243 3.901611,16.7915405 L3.901611,16.7915405 L0.20503525,13.0950076 C0.0507654124,12.9407277 -0.0227559019,12.723344 0.00619778192,12.5070961 C0.0351514657,12.2908482 0.16326954,12.1004622 0.3526915,11.9921996 L0.3526915,11.9921996 L2.01749975,11.0408935 C4.24615064,9.7726426 6.94418455,9.63637868 9.28927475,10.6736332 C10.9621972,11.4137535 12.8653223,11.4360501 14.5551254,10.7353269 L14.5551254,10.7353269 L20.0251625,8.45618287 L23.9677532,6.76648875 C23.8565099,6.46053786 23.7997338,6.13746165 23.8,5.8119145 L23.8,5.8119145 L23.8,2.8 C23.7999975,2.56595377 23.916973,2.34739364 24.1117179,2.21757812 L24.1117179,2.21757812 L25.8056216,1.08828125 C26.515054,0.615334559 27.4272095,0.571242075 28.1789509,0.973557406 C28.9306923,1.37587274 29.3999853,2.15928573 29.4,3.01191275 L29.4,3.01191275 L29.4,5.42735025 L34.6773,4.2546 Z M29.5008621,19.6 L23.6045346,19.6 L22.4,23.2135619 L22.4,26.6 C22.3999896,26.6545881 22.3936088,26.7089884 22.3809871,26.7620972 L22.3809871,26.7620972 L19.0862367,40.6 L19.8222106,40.6 L25.948153,24.944934 C26.056761,24.6673257 26.3292722,24.4889605 26.6271455,24.5005169 C26.9250189,24.5120732 27.1828919,24.7110153 27.2696655,24.9962037 L27.2696655,24.9962037 L32.0186764,40.6 L32.7821226,40.6 L29.5008621,19.6 Z M18.4351519,10.6353502 L15.0936231,12.027659 C13.0485323,12.8755665 10.7453511,12.8485764 8.72069187,11.9529769 C6.7829649,11.0959253 4.55361474,11.2085381 2.71211675,12.2564925 L2.71211675,12.2564925 L1.8430125,12.7530375 L4.89158337,15.8016119 C5.80714807,16.7114486 6.24761984,17.99527 6.08347162,19.27555 C5.98460127,20.0666935 6.23020352,20.8622046 6.7578624,21.4599165 C7.28552127,22.0576285 8.04443217,22.3999917 8.84172975,22.4 C12.5684796,22.4080964 15.7781931,25.0300064 16.5298525,28.680176 L16.5298525,28.680176 L21,24.210025 L21,23.1 C21.0000086,23.0247497 21.0121411,22.9499922 21.035931,22.8786014 L21.035931,22.8786014 L21.5145481,21.4427552 L15.8786434,19.564111 C15.5928033,19.468812 15.4000056,19.2013078 15.4,18.9 L15.4,18.9 L15.4,15.4 C15.3999971,15.2618029 15.4409091,15.1266983 15.5175781,15.0117187 L15.5175781,15.0117187 L18.4351519,10.6353502 Z M21.2341859,18.5968685 L20.6870545,19.6911531 L21.9572841,20.1145324 L22.2583375,19.2113766 L21.2341859,18.5968685 Z M37.2249264,3.91489875 L35.4555722,5.43149337 C35.368314,5.50625079 35.2640068,5.55839705 35.1518431,5.5833365 L35.1518431,5.5833365 L32.9,6.083749 L32.9,8.4 C32.8999983,8.66513835 32.7501935,8.90751878 32.5130435,9.02608612 L32.5130435,9.02608612 L31.1130435,9.72608612 C30.8104807,9.87753722 30.4428934,9.79075822 30.2400087,9.5199825 L30.2400087,9.5199825 L28.7772992,7.56970637 C27.9603987,8.58414684 26.5511811,8.90004609 25.3794056,8.3314 L25.3794056,8.3314 L25.8791076,10.3302071 C25.9586786,10.6485036 25.8065006,10.9793596 25.5130435,11.1260809 L25.5130435,11.1260809 L24.1130435,11.8260809 C23.8435665,11.9608362 23.5180942,11.9080381 23.3050352,11.6950059 L23.3050352,11.6950059 L21.1201095,9.51006875 L20.7670225,9.6614 L16.8,15.6119145 L16.8,18.3955082 L19.3453986,19.2439327 L20.0301456,17.8744387 L19.2398745,17.4002806 C19.0699311,17.2983104 18.9511752,17.1290832 18.9130749,16.9345914 C18.8749747,16.7400996 18.9211013,16.5385725 19.0400087,16.3800175 L19.0400087,16.3800175 L21.1400087,13.5800175 C21.2995017,13.3673287 21.5657131,13.2633477 21.8271392,13.3116273 C22.0885653,13.3599069 22.3000776,13.5521128 22.3730832,13.8077389 L22.3730832,13.8077389 L23.6279907,18.2 L29.5954654,18.2 L32.2359336,10.2786014 C32.2946229,10.1024799 32.4208979,9.95690106 32.5869591,9.87391387 L32.5869591,9.87391387 L36.620675,7.8570555 L38.4392347,5.12921762 L37.2249264,3.91489875 Z M21.4142154,15.547742 L20.6256899,16.5991087 L21.9398559,17.3875485 L21.4142154,15.547742 Z M23.9299279,8.30592 L22.5060824,8.9161135 L23.9382167,10.3482417 L24.3847292,10.1250485 L23.9299279,8.30592 Z M2.71749714,7.54089452 L3.41211609,8.75649351 L1.7473089,9.70779952 L1.05268995,8.49220053 L2.71749714,7.54089452 Z M4.72730387,6.72818562 C6.48176633,6.28422502 8.33440315,6.44105863 9.98926687,7.17363325 C11.6621894,7.91375347 13.5653144,7.93605009 15.2551175,7.23532687 L15.2551175,7.23532687 L15.8307459,6.995471 L16.3692471,8.28780487 L15.7936187,8.52766075 C13.7485278,9.37556745 11.4453469,9.34857729 9.4206875,8.45297862 C8.05325425,7.84767015 6.52240975,7.71809396 5.07268912,8.08494837 L5.07268912,8.08494837 Z M31.5,6.39484825 L29.9109755,6.74796762 L31.009475,8.21261 L31.5,7.96737025 L31.5,6.39484825 Z M28,4.4119145 L25.2,4.4119145 L25.2,5.8119145 C25.2,6.58511315 25.8268014,7.2119145 26.6,7.2119145 C27.3731986,7.2119145 28,6.58511315 28,5.8119145 L28,5.8119145 L28,4.4119145 Z M39.8633847,1.65335712 L38.29105,3.00108375 L39.2312182,3.941238 L40.3992347,2.18920712 L39.8633847,1.65335712 Z M27.5183346,2.20791182 C27.2218174,2.04922116 26.8620284,2.06659786 26.5821841,2.253125 L26.5821841,2.253125 L25.4440375,3.0119145 L28,3.0119145 C27.9999694,2.67560337 27.8148518,2.36660248 27.5183346,2.20791182 Z" id="Combined-Shape"></path>
            </g>
        </g>
    </g>
</svg>