<?xml version="1.0" encoding="UTF-8"?>
<svg width="40px" height="38px" viewBox="0 0 40 38" version="1.1" xmlns="http://www.w3.org/2000/svg" xmlns:xlink="http://www.w3.org/1999/xlink">
    <title>196F2F5E-92A1-4D4A-BE22-754BC792506E</title>
    <g id="Page-1" stroke="none" stroke-width="1" fill="none" fill-rule="evenodd">
        <g id="Homepage" transform="translate(-708.000000, -3059.000000)">
            <g id="Group-15" transform="translate(268.000000, 3004.000000)">
                <g id="Group-12" transform="translate(439.000000, 51.500000)">
                    <g id="Group-16" transform="translate(1.074297, 0.000000)">
                        <g id="Outlined-/-Editor-/-attach_money" transform="translate(0.000000, 4.545120)">
                            <polygon id="Path" points="0 0 38.6746988 0 38.6746988 36 0 36"></polygon>
                            <path d="M19.0150602,16.35 C15.3570783,15.465 14.1807229,14.55 14.1807229,13.125 C14.1807229,11.49 15.8082831,10.35 18.5316265,10.35 C21.4,10.35 22.4635542,11.625 22.560241,13.5 L26.1215361,13.5 C26.0087349,10.92 24.3167169,8.55 20.9487952,7.785 L20.9487952,4.5 L16.1144578,4.5 L16.1144578,7.74 C12.988253,8.37 10.4743976,10.26 10.4743976,13.155 C10.4743976,16.62 13.552259,18.345 18.0481928,19.35 C22.0768072,20.25 22.8825301,21.57 22.8825301,22.965 C22.8825301,24 22.0929217,25.65 18.5316265,25.65 C15.2120482,25.65 13.9067771,24.27 13.7295181,22.5 L10.1843373,22.5 C10.3777108,25.785 13.0204819,27.63 16.1144578,28.245 L16.1144578,31.5 L20.9487952,31.5 L20.9487952,28.275 C24.0911145,27.72 26.5888554,26.025 26.5888554,22.95 C26.5888554,18.69 22.6730422,17.235 19.0150602,16.35 Z" id="🔹-Icon-Color" fill="#E41F32"></path>
                        </g>
                    </g>
                </g>
            </g>
        </g>
    </g>
</svg>