<?xml version="1.0" encoding="UTF-8"?>
<svg width="41px" height="37px" viewBox="0 0 41 37" version="1.1" xmlns="http://www.w3.org/2000/svg" xmlns:xlink="http://www.w3.org/1999/xlink">
    <title>99E1DAEB-DB4C-4439-BC9B-C3C428EE67ED</title>
    <g id="Page-1" stroke="none" stroke-width="1" fill="none" fill-rule="evenodd">
        <g id="Homepage" transform="translate(-708.000000, -3312.000000)">
            <g id="Group-15" transform="translate(268.000000, 3004.000000)">
                <g id="Group-12" transform="translate(439.000000, 51.500000)">
                    <g id="Group-16" transform="translate(1.074297, 0.000000)">
                        <g id="Outlined-/-AV-/-recent_actors" transform="translate(0.537149, 257.000000)">
                            <polygon id="Path" points="0 0 38.6746988 0 38.6746988 36 0 36"></polygon>
                            <path d="M33.8403614,7.5 L37.063253,7.5 L37.063253,28.5 L33.8403614,28.5 L33.8403614,7.5 Z M27.3945783,7.5 L30.6174699,7.5 L30.6174699,28.5 L27.3945783,28.5 L27.3945783,7.5 Z M22.560241,7.5 C23.4465361,7.5 24.1716867,8.175 24.1716867,9 L24.1716867,27 C24.1716867,27.825 23.4465361,28.5 22.560241,28.5 L3.22289157,28.5 C2.33659639,28.5 1.61144578,27.825 1.61144578,27 L1.61144578,9 C1.61144578,8.175 2.33659639,7.5 3.22289157,7.5 L22.560241,7.5 Z M20.9487952,25.5 L20.9487952,10.5 L4.83433735,10.5 L4.83433735,25.5 L20.9487952,25.5 Z M12.8915663,17.835 C11.1561112,17.835 9.74924699,16.5254329 9.74924699,14.91 C9.74924699,13.2945671 11.1561112,11.985 12.8915663,11.985 C14.6270213,11.985 16.0338855,13.2945671 16.0338855,14.91 C16.0338855,16.5254329 14.6270213,17.835 12.8915663,17.835 Z M19.1600904,23.025 L19.1600904,24 L6.62304217,24 L6.62304217,23.025 C6.62304217,21.075 10.7966867,20.1 12.8915663,20.1 C14.9864458,20.1 19.1600904,21.075 19.1600904,23.025 Z" id="🔹-Icon-Color" fill="#E41F32"></path>
                        </g>
                    </g>
                </g>
            </g>
        </g>
    </g>
</svg>