<?xml version="1.0" encoding="UTF-8"?>
<svg width="43px" height="42px" viewBox="0 0 43 42" version="1.1" xmlns="http://www.w3.org/2000/svg" xmlns:xlink="http://www.w3.org/1999/xlink">
    <title>9A34667A-4646-4B69-8433-544FD3AC4ED0</title>
    <g id="Page-1" stroke="none" stroke-width="1" fill="none" fill-rule="evenodd">
        <g id="Homepage" transform="translate(-706.000000, -2951.000000)" fill="#E41F32" fill-rule="nonzero">
            <g id="rocket" transform="translate(706.500000, 2951.000000)">
                <path d="M41.1251367,8.20312534e-05 C41.6081367,8.20312534e-05 42.0001641,0.392027344 42.0001641,0.875109375 C42.0001641,11.2857668 33.4961329,20.9492014 26.2484792,27.2948838 C26.1441169,40.9897559 13.3118208,41.989536 13.1811094,41.9982773 C13.161832,42 13.1443594,42 13.125082,42 C12.8502773,42 12.5877773,41.8705547 12.4233047,41.6465273 C12.2448047,41.4085547 12.2028047,41.097 12.3078047,40.8170273 L12.3078047,40.8170273 L14.733024,34.347082 L7.65202397,27.266082 L1.18313672,29.6923594 C1.11543359,29.7192109 1.04776693,29.7359271 0.979067274,29.7440877 L0.875109375,29.7501094 C0.691359375,29.7501094 0.505886719,29.6906367 0.353636719,29.5768594 C0.113859375,29.400082 -0.017390625,29.1148594 0.00188671875,28.817332 C0.0106640625,28.6878047 1.01685937,15.750082 14.8751367,15.750082 L14.7037522,15.7519964 C21.0495639,8.50427458 30.7140007,8.20312534e-05 41.1251367,8.20312534e-05 Z M5.31660937,29.9635547 C6.82335937,29.4455273 8.44913672,30.0072773 10.1291367,31.6435547 C10.1816367,31.6767773 10.2306094,31.7135273 10.2726094,31.7555273 C11.9928867,33.4758047 12.5966367,35.133082 12.064582,36.68175 C10.699582,40.6683047 2.00205469,41.86875 1.01333203,41.9930273 C0.761332031,41.9930273 0.455109375,41.8880273 0.287109375,41.70075 C0.120914062,41.51175 -0.0243632813,41.265 0.00713671875,41.0165273 C0.129609375,40.0295273 1.33185937,31.3302773 5.31660937,29.9635547 Z M6.41213672,31.5333867 C6.23010937,31.5333867 6.05333203,31.5613594 5.88360937,31.6191094 C3.89041406,32.303332 2.48866406,36.7833047 1.91288672,40.094332 C5.17313672,39.532582 9.72308203,38.1220547 10.4091094,36.1165547 C10.694332,35.280082 10.2708867,34.2702773 9.14738672,33.1101094 C9.09669141,33.0768867 9.04763672,33.038332 9.00391406,32.9946094 C8.03438672,32.0216367 7.16460937,31.5333867 6.41213672,31.5333867 Z M24.4224535,28.8508288 L24.2974571,28.9519468 C20.5375324,32.0510103 17.4093432,34.1059526 16.4677687,34.7072762 L14.469082,40.0401094 C17.3418985,39.4310575 23.6516488,37.1559066 24.4224535,28.8508288 Z M40.2273867,1.77277734 C25.2281367,2.55158203 11.4206367,22.4525273 8.99513672,26.1310547 L8.99513672,26.1310547 L15.8691094,33.0050273 C19.551082,30.576082 39.4503867,16.7615273 40.2273867,1.77277734 Z M13.1489693,17.5791575 L12.9446731,17.5973838 C4.77392105,18.4498389 2.54766276,24.6864115 1.95652734,27.5346094 L1.95652734,27.5346094 L7.29216074,25.5332233 C7.89876612,24.5821059 9.99223345,21.3948937 13.1489693,17.5791575 Z M28.0001367,8.75002734 C30.8946094,8.75002734 33.2501367,11.1055547 33.2501367,14.0000273 C33.2501367,16.8945 30.8946094,19.2500273 28.0001367,19.2500273 C25.1056641,19.2500273 22.7501367,16.8945 22.7501367,14.0000273 C22.7501367,11.1055547 25.1056641,8.75002734 28.0001367,8.75002734 Z M28.0001367,10.5 C26.0698594,10.5 24.5001094,12.06975 24.5001094,14.0000273 C24.5001094,15.9303047 26.0698594,17.5000547 28.0001367,17.5000547 C29.930332,17.5000547 31.500082,15.9303047 31.5001641,14.0000273 C31.5001641,12.06975 29.9304141,10.5 28.0001367,10.5 Z" id="Combined-Shape"></path>
            </g>
        </g>
    </g>
</svg>