<?xml version="1.0" encoding="UTF-8"?>
<svg width="41px" height="38px" viewBox="0 0 41 38" version="1.1" xmlns="http://www.w3.org/2000/svg" xmlns:xlink="http://www.w3.org/1999/xlink">
    <title>0EBB9CF9-3FD6-4D38-9B50-4B1D7553080F</title>
    <g id="Page-1" stroke="none" stroke-width="1" fill="none" fill-rule="evenodd">
        <g id="Homepage" transform="translate(-1014.000000, -3312.000000)">
            <g id="Group-15" transform="translate(268.000000, 3004.000000)">
                <g id="Group-12" transform="translate(439.000000, 51.500000)">
                    <g id="Group-16" transform="translate(1.074297, 0.000000)">
                        <g id="Outlined-/-Device-/-wifi_tethering" transform="translate(306.711847, 257.500000)">
                            <polygon id="Path" points="0 0 38.6746988 0 38.6746988 36 0 36"></polygon>
                            <path d="M19.3373494,16.5 C17.564759,16.5 16.1144578,17.85 16.1144578,19.5 C16.1144578,21.15 17.564759,22.5 19.3373494,22.5 C21.1099398,22.5 22.560241,21.15 22.560241,19.5 C22.560241,17.85 21.1099398,16.5 19.3373494,16.5 Z M29.0060241,19.5 C29.0060241,14.535 24.6712349,10.5 19.3373494,10.5 C14.0034639,10.5 9.6686747,14.535 9.6686747,19.5 C9.6686747,22.83 11.6185241,25.725 14.503012,27.285 L16.1144578,24.675 C14.1968373,23.625 12.8915663,21.72 12.8915663,19.5 C12.8915663,16.185 15.7760542,13.5 19.3373494,13.5 C22.8986446,13.5 25.7831325,16.185 25.7831325,19.5 C25.7831325,21.72 24.4778614,23.625 22.560241,24.675 L24.1716867,27.285 C27.0561747,25.725 29.0060241,22.83 29.0060241,19.5 Z M19.3373494,4.5 C10.4421687,4.5 3.22289157,11.22 3.22289157,19.5 C3.22289157,25.05 6.46189759,29.88 11.264006,32.475 L12.8754518,29.88 C9.04021084,27.795 6.44578313,23.94 6.44578313,19.5 C6.44578313,12.87 12.214759,7.5 19.3373494,7.5 C26.4599398,7.5 32.2289157,12.87 32.2289157,19.5 C32.2289157,23.94 29.634488,27.795 25.7831325,29.88 L27.3945783,32.475 C32.2128012,29.88 35.4518072,25.05 35.4518072,19.5 C35.4518072,11.22 28.2325301,4.5 19.3373494,4.5 Z" id="🔹-Icon-Color" fill="#E41F32"></path>
                        </g>
                    </g>
                </g>
            </g>
        </g>
    </g>
</svg>