<?xml version="1.0" encoding="UTF-8"?>
<svg width="1496px" height="957px" viewBox="0 0 1496 957" version="1.1" xmlns="http://www.w3.org/2000/svg" xmlns:xlink="http://www.w3.org/1999/xlink">
    <title>D71A1A35-0D3B-46B5-8364-71486722C624</title>
    <g id="Page-1" stroke="none" stroke-width="1" fill="none" fill-rule="evenodd">
        <g id="Homepage" transform="translate(0.000000, -3012.000000)" fill="#F2F3F9">
            <path d="M1609.07251,3427.3812 C1537.54543,3427.3812 1590.55219,3205.60492 1538.23715,3071.51028 C1485.9221,2937.41564 1502.29565,2779.64241 1341.50555,2854.86214 C1089.81838,2972.60471 1369.48585,3157.56361 637.274012,3335.6859 C496.471098,3369.93846 413.438903,3527.54435 260.632874,3571.31905 C178.958782,3594.71642 110.70615,3568.0527 1.53484366,3653.90547 C-27.9428187,3677.08682 18.2177,3725.42994 30.2951706,3754.20464 C73.5556243,3857.27315 24.5256707,3899.7057 59.0107573,3938.42598 C100.740481,3985.28063 17.7063151,3989.91565 355.159692,3940.50924 C486.224414,3921.32011 760.239316,3786.4319 889.483467,3775.90538 C1145.08758,3755.08726 1262.04174,3870.20968 1478.11581,3807.88891 C1827.19682,3707.20586 1637.43319,3427.3812 1609.07251,3427.3812 Z" id="LightblueWave-Shape" transform="translate(838.908405, 3405.501211) rotate(16.000000) translate(-838.908405, -3405.501211) "></path>
        </g>
    </g>
</svg>